<svg xmlns="http://www.w3.org/2000/svg" xmlns:xlink="http://www.w3.org/1999/xlink" width="507.422" height="300.691" viewBox="0 0 507.422 300.691">
  <defs>
    <clipPath id="clip-path">
      <path id="Path_2" data-name="Path 2" d="M128.361,4.565H81.7c-15.963,0-33.364-1.888-48.36,4.629A55.974,55.974,0,0,0,.3,65.981,60.675,60.675,0,0,0,5.491,84.356a34.877,34.877,0,0,0,6.135,9.611c2.584,2.727,5.243,4.412,5.805,5.685,1.633,3.873-4.569,15.131-6.7,20.742-1.551,4.082,3.438,6.5,6.6,5.079,7.91-3.573,17.124-11.281,25.723-11.281,5.468,0,63.2,2.157,84.952,1.5,29.671-.9,54.592-23.109,55.821-53.461C185.133,30.3,159.313,5.816,128.361,4.565Zm32.959,88.488c-16.015,16.015-37.274,13.633-57.791,13.431-19.041-.187-38.075-.749-57.117-1.019-7.656-.1-15.244,3.206-22.607,6.847a51.587,51.587,0,0,0,2.689-8.15c1.678-7.581-1.611-8.038-6.742-14.232C-3.924,61.607,14.72,17.134,51.3,13.726c25.3-2.36,51.686-.172,77.064-.172,39.94,1.618,62.435,49.993,32.929,79.5Z" transform="translate(-0.003 -4.311)" fill="#ff0d0d" stroke="#fff" stroke-width="3" opacity="0.202"/>
    </clipPath>
  </defs>
  <g id="Group_3" data-name="Group 3" transform="translate(-144.866 -448.34)">
    <g id="Layer_2" data-name="Layer 2" transform="translate(184.997 451.808)">
      <g id="Layer_1" data-name="Layer 1" transform="translate(0.003 -0.001)">
        <g id="Bubble">
          <path id="Path_4" data-name="Path 4" d="M66.593,86.777A13.483,13.483,0,1,1,80.077,73.293,13.483,13.483,0,0,1,66.593,86.777Zm0-24.779A11.236,11.236,0,1,0,77.829,73.233,11.236,11.236,0,0,0,66.593,62Z" transform="translate(-13.329 -15.008)" fill="#fff"/>
          <path id="Path_5" data-name="Path 5" d="M117.043,86.777a13.483,13.483,0,1,1,13.483-13.483A13.483,13.483,0,0,1,117.043,86.777Zm0-24.779a11.236,11.236,0,1,0,11.236,11.236A11.236,11.236,0,0,0,117.043,62Z" transform="translate(-25.988 -15.008)" fill="#fff"/>
          <path id="Path_6" data-name="Path 6" d="M167.533,86.777a13.483,13.483,0,1,1,13.483-13.483A13.483,13.483,0,0,1,167.533,86.777Zm0-24.779a11.236,11.236,0,1,0,11.236,11.236A11.236,11.236,0,0,0,167.533,62Z" transform="translate(-38.658 -15.008)" fill="#fff"/>
          <path id="Path_7" data-name="Path 7" d="M130.995.262H81.556c-15.82,0-33.161-1.94-47.94,4.727A54.472,54.472,0,0,0,2.4,62.922C4.462,75.9,8.559,81.042,16.919,92.81c3.79,5.333,3.978,6.39,2.045,13.184-1.041,3.678-3.4,9.416-3.4,12.734,0,1.775,1.191,2.494,2.375,1.948,13.333-6.142,20.809-12.083,36.66-12.509,3.311-.09,6.472.082,9.948.09,23.131.052,47.289,1.663,70.585-.27,27.716-2.307,49.806-25.835,49.806-53.776C184.928,23.97,160.343,1.393,130.995.262Zm-.382,105.619c-24.12.906-48.525.262-72.66,0-11.873-.127-18.27,1.813-28.974,6.629-2.584,1.161-7.363,4.18-9.67,5.318-1,.5-1.573,0-1.273-.921,2.876-8.921,3.423-11.715,3.963-15.476.337-2.337.24-5.438-3.228-10.187C10.177,79.521,3.938,69.484,3.938,54.2c0-29.214,23.813-50.63,52.068-51.686,24.922-.936,50.045,0,74.989,0C158.853,3.588,182.98,25.236,182.681,54.2c-.3,29.281-23.588,50.615-52.068,51.686Z" transform="translate(-0.442 0.001)" fill="#fff" stroke="#fff" stroke-width="7"/>
        </g>
      </g>
    </g>
    <path id="Subtraction_1" data-name="Subtraction 1" d="M311.882,165.174h0a68.845,68.845,0,0,1-20.719-2.812c-17.753-6.072-23.737-18.989-26.952-25.928l0-.009c-.468-1.01-.872-1.882-1.249-2.6-1.412-2.683-3.263-10.181-4.07-19.32-.529-5.989-.952-17.16,2.16-24.692-17.68,13.8-36.172,25.458-53.476,33.72-17.648,8.427-33.186,12.882-44.934,12.882-.423,0-.847-.006-1.261-.017-.692.025-1.389.038-2.072.038H159.3c-14.256,0-25.147-5.486-32.369-16.308-5.84-8.751-7.721-18.685-8.624-23.459-.333-1.758-.534-2.819-.75-2.841a201.369,201.369,0,0,1-28.165-4.944A200.6,200.6,0,0,1,53.93,75.644,127.449,127.449,0,0,1,29.285,59.92C17.75,50.374,9.487,39.367,4.727,27.2A70.544,70.544,0,0,1,.265,8.143,52.121,52.121,0,0,1,.076,0,193.111,193.111,0,0,0,14.821,16.639,208.23,208.23,0,0,0,31.285,31.708,154.853,154.853,0,0,0,52.063,46.184a165.324,165.324,0,0,0,26.771,12.27,235.7,235.7,0,0,0,41.229,10.382,61.041,61.041,0,0,1,13.7-25.819,76.428,76.428,0,0,1,19.767-15.671A98.482,98.482,0,0,1,171.3,19.586a70.925,70.925,0,0,1,7.716-2.09,87.118,87.118,0,0,1,12.916-.961c10.009,0,22.92,1.851,27.588,10.669a27.643,27.643,0,0,1,3.1,10.147,29.833,29.833,0,0,1-.463,8.907,35.563,35.563,0,0,1-3.833,10.293,2.627,2.627,0,0,0-.176.335,48.749,48.749,0,0,1-4.592,5.9,84.978,84.978,0,0,1-14.68,12.978,99.466,99.466,0,0,1-26.124,12.979,124.523,124.523,0,0,1-38.924,5.9h-.25a.09.09,0,0,0-.088.067c-.109.289.318,1.444,1.325,3.014a27.079,27.079,0,0,0,4.923,5.618c4.51,3.969,12.52,8.7,25.065,8.7a62.411,62.411,0,0,0,16.177-2.313c11.012-2.975,22.392-7.93,34.79-15.147,10.739-6.252,20.566-13.216,29.235-19.36,8.326-5.9,15.516-11,21.57-14.114a120.931,120.931,0,0,1,19.233-8.189,56.066,56.066,0,0,1,16.757-2.751A47.675,47.675,0,0,1,313.317,51.4c7.634,1.745,13.4,4.132,18.152,7.515,4.287,3.053,7.373,6.657,10.639,10.473.648.757,1.382,1.614,2.116,2.454,1.568,6.475.275,13.562,0,14.917a11.79,11.79,0,0,1-3.568,6.877,5.072,5.072,0,0,1-3.382,1.289,2.3,2.3,0,0,1-1.473-.352c-.021-.023-.08-.107-.177-.248a50.419,50.419,0,0,0-10.01-10.616,42.827,42.827,0,0,0-10.5-6.157,37.342,37.342,0,0,0-14-2.72,40.654,40.654,0,0,0-7.484.712,32.506,32.506,0,0,0-7.225,4.119,34.927,34.927,0,0,0-5.891,5.645,37.111,37.111,0,0,0-7.258,14.149,32.148,32.148,0,0,0-.771,12.973,24.328,24.328,0,0,0,4.922,11.523c4.942,5.563,9.542,9.4,14.477,12.068a42.506,42.506,0,0,0,20.739,4.911c.231,0,.466,0,.7,0a86.5,86.5,0,0,0,17.359-1.97,92.911,92.911,0,0,0,20.832-7.311c19.544-9.525,35.2-24.881,50.347-39.731,8.406-8.243,16.346-16.03,24.77-22.706a108.473,108.473,0,0,1,12.958-8.944,70.843,70.843,0,0,1,13.868-6.272,55.443,55.443,0,0,1,16.942-2.9,36.845,36.845,0,0,1,26.65,10.873,52.664,52.664,0,0,1,10.38,15.055c-7.737-1.479-16.007-2.849-24.06-2.849a72.383,72.383,0,0,0-20.787,3.1c-7.391,2.155-15.73,5.559-26.244,10.712-8.778,4.3-21.054,16.454-34.05,29.319-7.9,7.82-16.069,15.906-24.11,22.924-9.119,7.957-16.676,13.279-23.1,16.27-4.171,2.134-10.754,4.27-18.064,5.86A120.989,120.989,0,0,1,311.882,165.174ZM135.866,69.115c.013,0,.944.068,2.66.068a102.941,102.941,0,0,0,26.361-3.768,114.878,114.878,0,0,0,19.809-7.4,115.884,115.884,0,0,0,21.466-13.458c-3.464-2.641-8.408-3.872-15.56-3.872-.59,0-1.21.008-1.843.025a64.342,64.342,0,0,0-16.683,2.872,73.51,73.51,0,0,0-15.766,6.851,69.362,69.362,0,0,0-15.241,12.3,54.116,54.116,0,0,0-5.2,6.378Z" transform="translate(144.866 583.857)" fill="#fff"/>
    <circle id="Ellipse_1" data-name="Ellipse 1" cx="12.5" cy="12.5" r="12.5" transform="translate(301 498)" fill="#fff"/>
    <circle id="Ellipse_2" data-name="Ellipse 2" cx="12.5" cy="12.5" r="12.5" transform="translate(263 498)" fill="#fff"/>
    <circle id="Ellipse_3" data-name="Ellipse 3" cx="12.5" cy="12.5" r="12.5" transform="translate(225 498)" fill="#fff"/>
  </g>
</svg>
